<svg xmlns="http://www.w3.org/2000/svg" width="128" height="128" fill="none" viewBox="0 0 128 128" id="data-file">
  <path stroke="#000" stroke-linecap="round" stroke-width="5" d="M88.5198 102H39C34.0294 102 30 97.9706 30 93V54C30 49.0294 34.0294 45 39 45L40.2745 45"></path>
  <path stroke="#000" stroke-linecap="round" stroke-width="5" d="M89.6729 102H39.9321C33.9526 102 29.6356 96.2766 31.2785 90.5271L37.9861 67.0546L40.1155 61.6832C41.4754 58.2526 44.7918 55.9999 48.482 55.9999H72.5433H95.8127C101.56 55.9999 105.835 61.3136 104.604 66.9276L98.464 94.9277C97.5585 99.0573 93.9007 102 89.6729 102Z"></path>
  <path stroke="#000" stroke-width="5" d="M41 59L41 34C41 29.0294 45.0294 25 50 25H75.771C77.585 25 79.3281 25.7042 80.6331 26.9642L88.5629 34.6206L91.0883 37.2938C92.316 38.5933 93 40.3132 93 42.1009V56.3506"></path>
  <path stroke="#000" stroke-width="5" d="M78 26V38C78 39.6569 79.3431 41 81 41H93"></path>
</svg>
