<svg xmlns="http://www.w3.org/2000/svg" width="96" height="96" fill="none" viewBox="0 0 96 96" id="document">
  <path stroke="#000" stroke-width="5" d="M19 19C19 14.0294 23.0294 10 28 10H58.0785C59.9108 10 61.6701 10.7184 62.9786 12.0011L72.0509 20.8939L75.1244 24.1967C76.3299 25.4921 77 27.1959 77 28.9654V77C77 81.9706 72.9706 86 68 86H28C23.0294 86 19 81.9706 19 77V19Z"></path>
  <path stroke="#000" stroke-width="5" d="M60 11V25C60 26.6569 61.3431 28 63 28H77"></path>
  <path stroke="#000" stroke-linecap="round" stroke-width="5" d="M32 44H56M32 56H63M32 68H37.8961M48 68H64"></path>
  <path stroke="#000" stroke-width="5" d="M32 10L32.1546 31.4939C32.1618 32.5001 33.4833 32.8667 34.0079 32.0081L38.3833 24.8471C39.1631 23.5708 41.0167 23.5708 41.7965 24.8471L46.1467 31.9668C46.6733 32.8286 48 32.4554 48 31.4454L48 10H32Z"></path>
</svg>
