<svg xmlns="http://www.w3.org/2000/svg" width="96" height="96" fill="none" viewBox="0 0 96 96" id="folder">
  <path stroke="#12182B" stroke-linecap="round" stroke-width="5" d="M71.6784 84.1883H15.0422C10.0597 84.1883 6.02056 79.4034 6.02056 73.5008L6.02056 22.6875C6.02056 16.785 10.0597 12 15.0422 12H39.8706C42.5572 12 45.104 13.4185 46.818 15.8694L49.559 19.7891C51.2182 22.1618 53.9176 23.5952 56.8127 23.616C57.6296 23.6219 58.4436 23.6258 59.149 23.6258H82.3148M15.0273 84.1883H73.604C77.8306 84.1883 81.4906 80.7123 82.4098 75.8251L89.7804 36.6375C91.036 29.9615 86.7483 23.6257 80.9746 23.6257H25.3316C21.6506 23.6257 18.3387 26.275 16.9633 30.3199L14.2906 38.1801L6.36349 70.5206C4.68758 77.3578 9.01734 84.1883 15.0273 84.1883Z"></path>
</svg>
