<svg xmlns="http://www.w3.org/2000/svg" width="1024" height="1024" fill="none" viewBox="0 0 1024 1024" id="light-emergency-on">
  <path fill="#000" fill-rule="evenodd" d="M691 658H333L333 710H691V658zM333 633C319.193 633 308 644.193 308 658V710C308 723.807 319.193 735 333 735H691C704.807 735 716 723.807 716 710V658C716 644.193 704.807 633 691 633H333zM582.548 322.375C565.17 309.868 541.529 301.219 508.904 301.512 476.231 301.806 452.923 310.749 436.052 323.316 419.057 335.977 407.787 352.927 400.327 370.39 392.854 387.883 389.371 405.517 387.781 418.904 386.99 425.564 386.678 431.087 386.562 434.9 386.505 436.805 386.496 438.277 386.501 439.244 386.504 439.727 386.509 440.083 386.514 440.304 386.516 440.415 386.519 440.491 386.52 440.532L386.52 440.549C386.52 440.553 386.52 440.556 386.52 440.559 386.521 440.561 386.521 440.563 386.521 440.565L386.521 440.567C386.526 440.711 386.528 440.856 386.528 441.001V614C386.528 620.904 380.932 626.5 374.028 626.5 367.125 626.5 361.528 620.904 361.528 614V441.188C361.526 441.093 361.523 440.974 361.52 440.832 361.512 440.482 361.505 439.992 361.502 439.371 361.495 438.13 361.507 436.362 361.574 434.143 361.708 429.709 362.066 423.446 362.955 415.956 364.726 401.041 368.645 380.914 377.337 360.568 386.042 340.192 399.699 319.223 421.117 303.268 442.659 287.22 471.248 276.849 508.679 276.513 546.159 276.176 575.096 286.211 597.151 302.083 619.07 317.858 633.428 338.841 642.833 359.316 652.228 379.769 656.861 400.095 659.166 415.188 660.323 422.767 660.906 429.11 661.2 433.602 661.347 435.85 661.422 437.641 661.46 438.898 661.479 439.527 661.489 440.023 661.494 440.376 661.497 440.553 661.498 440.694 661.499 440.798L661.5 440.927 661.5 440.987C661.5 440.994 661.5 441 649 441H661.5V614C661.5 620.904 655.904 626.5 649 626.5 642.096 626.5 636.5 620.904 636.5 614V441L636.5 440.98C636.499 440.937 636.499 440.858 636.497 440.745 636.494 440.518 636.487 440.154 636.472 439.66 636.441 438.673 636.38 437.173 636.253 435.233 635.999 431.35 635.486 425.73 634.452 418.962 632.376 405.36 628.246 387.453 620.115 369.752 611.994 352.073 600.063 334.98 582.548 322.375z" clip-rule="evenodd"></path>
  <path fill="#000" fill-rule="evenodd" d="M461.515 327.161C472.131 322.763 483.509 320.5 495 320.5V345.5C486.792 345.5 478.665 347.117 471.082 350.258 463.499 353.398 456.609 358.002 450.806 363.806 445.002 369.609 440.398 376.499 437.258 384.082 434.117 391.665 432.5 399.792 432.5 408H407.5C407.5 396.509 409.763 385.131 414.161 374.515 418.558 363.899 425.003 354.253 433.128 346.128 441.253 338.003 450.899 331.558 461.515 327.161zM699.5 408C699.5 401.096 705.096 395.5 712 395.5H812C818.904 395.5 824.5 401.096 824.5 408 824.5 414.904 818.904 420.5 812 420.5H712C705.096 420.5 699.5 414.904 699.5 408zM199.5 408C199.5 401.096 205.096 395.5 212 395.5H312C318.904 395.5 324.5 401.096 324.5 408 324.5 414.904 318.904 420.5 312 420.5H212C205.096 420.5 199.5 414.904 199.5 408zM641.161 283.55C636.28 278.668 636.28 270.754 641.161 265.872L711.872 195.161C716.753 190.28 724.668 190.28 729.549 195.161 734.431 200.043 734.431 207.958 729.549 212.839L658.839 283.55C653.957 288.431 646.043 288.431 641.161 283.55zM383.55 283.55C388.431 278.668 388.431 270.754 383.55 265.872L312.839 195.161C307.958 190.28 300.043 190.28 295.161 195.161 290.28 200.043 290.28 207.958 295.161 212.839L365.872 283.55C370.754 288.431 378.668 288.431 383.55 283.55z" clip-rule="evenodd"></path>
</svg>
