<svg xmlns="http://www.w3.org/2000/svg" width="128" height="128" fill="none" viewBox="0 0 128 128" id="stickynote">
  <path stroke="#000" stroke-linecap="round" stroke-width="6" d="M100 82.1447L89.6015 90.5724L78.2191 99M100 82.1447L100 68.5L100 53.25V53.25C100 44.8277 93.1723 38 84.75 38L54.25 38C45.8277 38 39 44.8277 39 53.25V53.25L39 68.5L39 83.75V83.75C39 92.1723 45.8277 99 54.25 99L78.2191 99M100 82.1447L86.2191 82.1447C81.8009 82.1447 78.2191 85.7265 78.2191 90.1447L78.2191 99"></path>
  <path fill="#000" d="M31 43.25C31 44.9069 29.6569 46.25 28 46.25C26.3431 46.25 25 44.9069 25 43.25L31 43.25ZM38.6096 86L41.6096 86L41.6096 92L38.6096 92L38.6096 86ZM77.75 31L43.25 31L43.25 25L77.75 25L77.75 31ZM31 58.5L31 73.75H25L25 58.5H31ZM31 73.75L31 78.3904H25L25 73.75H31ZM31 43.25L31 58.5H25L25 43.25L31 43.25ZM43.25 31C36.4845 31 31 36.4845 31 43.25L25 43.25C25 33.1708 33.1708 25 43.25 25L43.25 31ZM77.75 25C85.6201 25 92 31.3799 92 39.25L86 39.25C86 34.6936 82.3064 31 77.75 31L77.75 25ZM31 78.3904C31 82.5931 34.4069 86 38.6096 86L38.6096 92C31.0932 92 25 85.9068 25 78.3904H31Z"></path>
  <path stroke="#000" stroke-linecap="round" stroke-linejoin="round" stroke-width="6" d="M55 57H81M55 75H68"></path>
</svg>
